<?xml version="1.0" encoding="utf-8"?>
<!-- Generator: Adobe Illustrator 23.0.3, SVG Export Plug-In . SVG Version: 6.00 Build 0)  -->
<svg version="1.1" id="Livello_3" xmlns="http://www.w3.org/2000/svg" xmlns:xlink="http://www.w3.org/1999/xlink" x="0px" y="0px"
	 viewBox="0 0 346 116.4" style="enable-background:new 0 0 346 116.4;" xml:space="preserve">
<style type="text/css">
	.st0{fill:#39445D;}
	.st1{fill:url(#SVGID_1_);}
	.st2{fill:url(#SVGID_2_);}
	.st3{fill:url(#SVGID_3_);}
</style>
<g>
	<path class="st0" d="M115.1,42.5c10.7,0,19.8,4.1,27.1,12.3c6.4,7,9.6,15.4,9.6,25.2c0,5.9-1.5,11.6-4.6,17.2
		c-3.2,5.8-7.5,10.4-13.1,13.8c-5.8,3.6-12.2,5.4-19.1,5.4c-7,0-13.5-1.8-19.5-5.5c-5.7-3.5-10.2-8.3-13.3-14.2
		c-2.8-5.4-4.3-11.1-4.3-17.2c0-10.5,3.9-19.5,11.7-27C96.7,46,105.1,42.6,115.1,42.5z M115,61.9c-5.1,0-9.4,2.1-13,6.3
		c-2.6,3.1-4,6.8-4,11.3c0,5.2,1.8,9.4,5.3,12.8c3.3,3.1,7.1,4.7,11.6,4.7c5.1,0,9.2-1.9,12.5-5.7c3-3.5,4.4-7.4,4.4-11.6
		c0-5.5-2.1-10.1-6.2-13.6C122.7,63.4,119.1,62,115,61.9z"/>
	
		<linearGradient id="SVGID_1_" gradientUnits="userSpaceOnUse" x1="55.8699" y1="7.1605" x2="3.8556" y2="93.7268" gradientTransform="matrix(1 0 0 -1 0 118.2)">
		<stop  offset="0" style="stop-color:#32BEF0"/>
		<stop  offset="0.7323" style="stop-color:#2A3284"/>
	</linearGradient>
	<path class="st1" d="M64.2,54.8c-7.4-8.2-16.4-12.3-27.1-12.3c-6.4,0.1-12.1,1.4-17.2,4.1V26.8H0v52.6l0,0v0.1
		c0,6.1,1.4,11.8,4.3,17.2c3.1,5.9,7.5,10.6,13.3,14.2c6,3.6,12.4,5.5,19.5,5.5c6.9,0,13.3-1.8,19.1-5.4c5.5-3.4,9.9-8,13.1-13.8
		c3.1-5.6,4.6-11.3,4.6-17.2C73.8,70.1,70.6,61.8,64.2,54.8z M49.5,91.3C46.2,95.1,42.1,97,37,97c-4.5,0-8.4-1.6-11.6-4.7
		c-3.5-3.4-5.3-7.6-5.3-12.8c0-4.5,1.3-8.3,4-11.3c3.5-4.2,7.9-6.3,13-6.3c4.1,0.1,7.6,1.5,10.8,4.1c4.1,3.5,6.2,8.1,6.2,13.6
		C53.9,83.9,52.4,87.8,49.5,91.3z"/>
	
		<linearGradient id="SVGID_2_" gradientUnits="userSpaceOnUse" x1="2.129936e-02" y1="99.95" x2="19.8782" y2="99.95" gradientTransform="matrix(1 0 0 -1 0 118.2)">
		<stop  offset="1.263787e-03" style="stop-color:#F39325"/>
		<stop  offset="1" style="stop-color:#E83943"/>
	</linearGradient>
	<rect y="13.4" class="st2" width="19.9" height="9.7"/>
	
		<linearGradient id="SVGID_3_" gradientUnits="userSpaceOnUse" x1="2.129936e-02" y1="113.35" x2="19.8782" y2="113.35" gradientTransform="matrix(1 0 0 -1 0 118.2)">
		<stop  offset="0" style="stop-color:#00AF94"/>
		<stop  offset="1" style="stop-color:#FCDC30"/>
	</linearGradient>
	<rect class="st3" width="19.9" height="9.7"/>
	<path class="st0" d="M345.8,79.4L345.8,79.4V19.6H326v27c-5.1-2.7-10.7-4.1-16.9-4.1c-10,0.1-18.5,3.4-25.3,10
		c-7.8,7.5-11.7,16.5-11.7,27c0,6.1,1.4,11.8,4.3,17.2c3.1,5.9,7.5,10.6,13.3,14.2c6,3.6,12.4,5.5,19.5,5.5c6.9,0,13.3-1.8,19.1-5.4
		c5.5-3.4,9.9-8,13.1-13.8c3.1-5.6,4.6-11.3,4.6-17.2C345.8,79.8,345.8,79.6,345.8,79.4z M321.6,91.3c-3.3,3.8-7.4,5.7-12.5,5.7
		c-4.5,0-8.4-1.6-11.6-4.7c-3.5-3.4-5.3-7.6-5.3-12.8c0-4.5,1.3-8.3,4-11.3c3.5-4.2,7.9-6.3,13-6.3c4.1,0.1,7.6,1.5,10.8,4.1
		c4.1,3.5,6.2,8.1,6.2,13.6C326,83.9,324.5,87.8,321.6,91.3z"/>
	<path class="st0" d="M256,116.3h-19.9V76.5c0-5.2,0.2-8.9,0.5-11.2c0.3-2.3,1-4.6,2.1-6.8c5-10.6,14.2-15.9,27.9-15.9
		c0.7,0,1.7,0,3.2,0.1V61l-2.4,0.1c-4.4,0.1-7.4,0.9-8.9,2.5c-1.6,1.6-2.4,4.5-2.4,8.6v44.1H256z"/>
	<path class="st0" d="M193.2,42.5c10.7,0,19.8,4.1,27.1,12.3c6.4,7,9.6,15.4,9.6,25.2c0,5.9-1.5,11.6-4.6,17.2
		c-3.2,5.8-7.5,10.4-13.1,13.8c-5.8,3.6-12.2,5.4-19.1,5.4c-7,0-13.5-1.8-19.5-5.5c-5.7-3.5-10.2-8.3-13.3-14.2
		c-2.8-5.4-4.3-11.1-4.3-17.2c0-10.5,3.9-19.5,11.7-27C174.7,46,183.2,42.6,193.2,42.5z M193.1,61.9c-5.1,0-9.4,2.1-13,6.3
		c-2.6,3.1-4,6.8-4,11.3c0,5.2,1.8,9.4,5.3,12.8c3.3,3.1,7.1,4.7,11.6,4.7c5.1,0,9.2-1.9,12.5-5.7c3-3.5,4.4-7.4,4.4-11.6
		c0-5.5-2.1-10.1-6.2-13.6C200.8,63.4,197.2,62,193.1,61.9z"/>
	<rect x="211.8" y="79.4" class="st0" width="18.1" height="36.8"/>
</g>
</svg>
